<svg width="18" height="21" viewBox="0 0 18 21" fill="none" xmlns="http://www.w3.org/2000/svg">
<path d="M8.77637 0.205566C8.46484 0.205566 8.16748 0.347168 7.92676 0.602051L0.634277 7.90869C0.393555 8.16357 0.280273 8.44678 0.280273 8.74414C0.280273 9.36719 0.747559 9.84863 1.38477 9.84863C1.68213 9.84863 1.97949 9.74951 2.17773 9.53711L4.20264 7.58301L7.82764 3.56152L7.62939 6.30859V19.6758C7.62939 20.3413 8.11084 20.8086 8.77637 20.8086C9.44189 20.8086 9.92334 20.3413 9.92334 19.6758V6.30859L9.7251 3.54736L13.3501 7.58301L15.375 9.53711C15.5732 9.74951 15.8706 9.84863 16.168 9.84863C16.8052 9.84863 17.2725 9.36719 17.2725 8.74414C17.2725 8.44678 17.1592 8.16357 16.9185 7.90869L9.62598 0.602051C9.38525 0.347168 9.08789 0.205566 8.77637 0.205566Z" fill="white"/>
</svg>
